# This file uses centimeters as units for non-parametric coordinates.

mtllib Brick_311.mtl
g default
v 0.023050 -0.010550 0.025000
v -0.023050 -0.010550 0.025000
v -0.023050 0.010550 0.025000
v 0.023050 0.010550 0.025000
v -0.023050 -0.012500 0.023050
v 0.023050 -0.012500 0.023050
v 0.023050 -0.012500 -0.023050
v -0.023050 -0.012500 -0.023050
v -0.025000 0.010550 0.023050
v -0.025000 -0.010550 0.023050
v -0.025000 -0.010550 -0.023050
v -0.025000 0.010550 -0.023050
v 0.023050 0.012500 0.023050
v -0.023050 0.012500 0.023050
v -0.023050 0.012500 -0.023050
v 0.023050 0.012500 -0.023050
v 0.025000 -0.010550 0.023050
v 0.025000 0.010550 0.023050
v 0.025000 0.010550 -0.023050
v 0.025000 -0.010550 -0.023050
v -0.023050 -0.010550 -0.025000
v 0.023050 -0.010550 -0.025000
v 0.023050 0.010550 -0.025000
v -0.023050 0.010550 -0.025000
v -0.016950 -0.012500 -0.016950
v 0.016950 -0.012500 -0.016950
v 0.016950 -0.012500 0.016950
v -0.016950 -0.012500 0.016950
v 0.013050 -0.010550 -0.015000
v -0.013050 -0.010550 -0.015000
v -0.013050 0.000550 -0.015000
v 0.013050 0.000550 -0.015000
v -0.015000 -0.010550 -0.013050
v -0.015000 -0.010550 0.013050
v -0.015000 0.000550 0.013050
v -0.015000 0.000550 -0.013050
v -0.013050 -0.010550 0.015000
v 0.013050 -0.010550 0.015000
v 0.013050 0.000550 0.015000
v -0.013050 0.000550 0.015000
v 0.015000 -0.010550 0.013050
v 0.015000 -0.010550 -0.013050
v 0.015000 0.000550 -0.013050
v 0.015000 0.000550 0.013050
v 0.013050 0.002500 -0.013050
v -0.013050 0.002500 -0.013050
v -0.013050 0.002500 0.013050
v 0.013050 0.002500 0.013050
v -0.023988 -0.010550 0.024718
v -0.023973 -0.011473 0.024564
v -0.023988 0.010550 0.024718
v -0.023973 0.011473 0.024564
v -0.023050 0.011488 0.024718
v 0.023050 0.011488 0.024718
v 0.023973 0.011473 0.024564
v 0.023988 0.010550 0.024718
v 0.023988 -0.010550 0.024718
v 0.023973 -0.011473 0.024564
v 0.023050 -0.011488 0.024718
v -0.023050 -0.011488 0.024718
v 0.023988 -0.012218 0.023050
v 0.023973 -0.012064 0.023973
v 0.023988 -0.012218 -0.023050
v 0.023973 -0.012064 -0.023973
v 0.023050 -0.012218 -0.023988
v -0.023050 -0.012218 -0.023988
v -0.023973 -0.012064 -0.023973
v -0.023988 -0.012218 -0.023050
v -0.023988 -0.012218 0.023050
v -0.023973 -0.012064 0.023973
v -0.023050 -0.012218 0.023988
v 0.023050 -0.012218 0.023988
v -0.024718 -0.011488 0.023050
v -0.024564 -0.011473 0.023973
v -0.024718 -0.011488 -0.023050
v -0.024564 -0.011473 -0.023973
v -0.024718 -0.010550 -0.023988
v -0.024718 0.010550 -0.023988
v -0.024564 0.011473 -0.023973
v -0.024718 0.011488 -0.023050
v -0.024718 0.011488 0.023050
v -0.024564 0.011473 0.023973
v -0.024718 0.010550 0.023988
v -0.024718 -0.010550 0.023988
v -0.023988 0.012218 0.023050
v -0.023973 0.012064 0.023973
v -0.023988 0.012218 -0.023050
v -0.023973 0.012064 -0.023973
v -0.023050 0.012218 -0.023988
v 0.023050 0.012218 -0.023988
v 0.023973 0.012064 -0.023973
v 0.023988 0.012218 -0.023050
v 0.023988 0.012218 0.023050
v 0.023973 0.012064 0.023973
v 0.023050 0.012218 0.023988
v -0.023050 0.012218 0.023988
v 0.024718 0.011488 0.023050
v 0.024564 0.011473 0.023973
v 0.024718 0.011488 -0.023050
v 0.024564 0.011473 -0.023973
v 0.024718 0.010550 -0.023988
v 0.024718 -0.010550 -0.023988
v 0.024564 -0.011473 -0.023973
v 0.024718 -0.011488 -0.023050
v 0.024718 -0.011488 0.023050
v 0.024564 -0.011473 0.023973
v 0.024718 -0.010550 0.023988
v 0.024718 0.010550 0.023988
v 0.023988 -0.010550 -0.024718
v 0.023973 -0.011473 -0.024564
v 0.023988 0.010550 -0.024718
v 0.023973 0.011473 -0.024564
v 0.023050 0.011488 -0.024718
v -0.023050 0.011488 -0.024718
v -0.023973 0.011473 -0.024564
v -0.023988 0.010550 -0.024718
v -0.023988 -0.010550 -0.024718
v -0.023973 -0.011473 -0.024564
v -0.023050 -0.011488 -0.024718
v 0.023050 -0.011488 -0.024718
v 0.016012 -0.012218 -0.014649
v 0.014999 -0.012054 -0.014999
v 0.016012 -0.012218 0.014649
v 0.014999 -0.012054 0.014999
v 0.014649 -0.012218 0.016012
v -0.014649 -0.012218 0.016012
v -0.014999 -0.012054 0.014999
v -0.016012 -0.012218 0.014649
v -0.016012 -0.012218 -0.014649
v -0.014999 -0.012054 -0.014999
v -0.014649 -0.012218 -0.016012
v 0.014649 -0.012218 -0.016012
v -0.013988 -0.010550 -0.014718
v -0.014326 -0.011422 -0.015041
v -0.013988 0.000550 -0.014718
v -0.013973 0.001473 -0.014564
v -0.013050 0.001488 -0.014718
v 0.013050 0.001488 -0.014718
v 0.013973 0.001473 -0.014564
v 0.013988 0.000550 -0.014718
v 0.013988 -0.010550 -0.014718
v 0.014326 -0.011422 -0.015041
v 0.013382 -0.011488 -0.015282
v -0.013382 -0.011488 -0.015282
v -0.014718 -0.010550 0.013988
v -0.015041 -0.011422 0.014326
v -0.014718 0.000550 0.013988
v -0.014564 0.001473 0.013973
v -0.014718 0.001488 0.013050
v -0.014718 0.001488 -0.013050
v -0.014564 0.001473 -0.013973
v -0.014718 0.000550 -0.013988
v -0.014718 -0.010550 -0.013988
v -0.015041 -0.011422 -0.014326
v -0.015282 -0.011488 -0.013382
v -0.015282 -0.011488 0.013382
v 0.013988 -0.010550 0.014718
v 0.014326 -0.011422 0.015041
v 0.013988 0.000550 0.014718
v 0.013973 0.001473 0.014564
v 0.013050 0.001488 0.014718
v -0.013050 0.001488 0.014718
v -0.013973 0.001473 0.014564
v -0.013988 0.000550 0.014718
v -0.013988 -0.010550 0.014718
v -0.014326 -0.011422 0.015041
v -0.013382 -0.011488 0.015282
v 0.013382 -0.011488 0.015282
v 0.014718 -0.010550 -0.013988
v 0.015041 -0.011422 -0.014326
v 0.014718 0.000550 -0.013988
v 0.014564 0.001473 -0.013973
v 0.014718 0.001488 -0.013050
v 0.014718 0.001488 0.013050
v 0.014564 0.001473 0.013973
v 0.014718 0.000550 0.013988
v 0.014718 -0.010550 0.013988
v 0.015041 -0.011422 0.014326
v 0.015282 -0.011488 0.013382
v 0.015282 -0.011488 -0.013382
v -0.013988 0.002218 -0.013050
v -0.013973 0.002064 -0.013973
v -0.013988 0.002218 0.013050
v -0.013973 0.002064 0.013973
v -0.013050 0.002218 0.013988
v 0.013050 0.002218 0.013988
v 0.013973 0.002064 0.013973
v 0.013988 0.002218 0.013050
v 0.013988 0.002218 -0.013050
v 0.013973 0.002064 -0.013973
v 0.013050 0.002218 -0.013988
v -0.013050 0.002218 -0.013988
vn 0.005920 0.012712 0.999902
vn -0.005920 0.012712 0.999902
vn -0.005920 -0.012712 0.999902
vn 0.005920 -0.012712 0.999902
vn -0.005920 0.012712 -0.999902
vn 0.005920 0.012712 -0.999902
vn 0.005920 -0.012712 -0.999902
vn -0.005920 -0.012712 -0.999902
vn -0.005956 0.999965 0.005956
vn 0.005956 0.999965 0.005956
vn 0.005956 0.999965 -0.005956
vn -0.005956 0.999965 -0.005956
vn 0.999902 0.012712 -0.005920
vn 0.999902 0.012712 0.005920
vn 0.999902 -0.012712 0.005920
vn 0.999902 -0.012712 -0.005920
vn -0.999902 0.012712 0.005920
vn -0.999902 0.012712 -0.005920
vn -0.999902 -0.012712 -0.005920
vn -0.999902 -0.012712 0.005920
vn -0.003250 -0.999990 0.003250
vn 0.003250 -0.999990 0.003250
vn -0.039712 -0.998422 -0.039712
vn 0.039712 -0.998422 -0.039712
vn 0.003250 -0.999990 -0.003250
vn -0.039712 -0.998422 0.039712
vn -0.003250 -0.999990 -0.003250
vn 0.039712 -0.998422 0.039712
vn -0.010320 -0.999894 -0.010320
vn 0.010320 -0.999894 -0.010320
vn 0.010320 -0.999894 0.010320
vn -0.010320 -0.999894 0.010320
vn -0.010199 -0.023177 0.999679
vn 0.010199 -0.023177 0.999679
vn 0.010030 -0.028130 0.999554
vn -0.010030 -0.028130 0.999554
vn 0.999679 -0.023177 0.010199
vn 0.999679 -0.023177 -0.010199
vn 0.999554 -0.028130 -0.010030
vn 0.999554 -0.028130 0.010030
vn 0.010199 -0.023177 -0.999679
vn -0.010199 -0.023177 -0.999679
vn -0.010030 -0.028130 -0.999554
vn 0.010030 -0.028130 -0.999554
vn -0.999679 -0.023177 -0.010199
vn -0.999679 -0.023177 0.010199
vn -0.999554 -0.028130 0.010030
vn -0.999554 -0.028130 -0.010030
vn -0.516805 0.007317 0.856072
vn -0.516805 -0.007317 0.856072
vn -0.395814 -0.395814 0.828651
vn -0.003420 -0.517753 0.855523
vn -0.003420 0.517753 0.855523
vn -0.395814 0.395814 0.828651
vn 0.003420 0.517753 0.855523
vn 0.516805 0.007317 0.856072
vn 0.395814 0.395814 0.828651
vn 0.516805 -0.007317 0.856072
vn 0.003420 -0.517753 0.855523
vn 0.395814 -0.395814 0.828651
vn 0.517754 -0.855523 -0.003420
vn 0.517754 -0.855523 0.003420
vn 0.395814 -0.828651 0.395815
vn 0.003420 -0.855523 0.517754
vn 0.003420 -0.855523 -0.517754
vn 0.395814 -0.828651 -0.395814
vn -0.003420 -0.855523 -0.517754
vn -0.517754 -0.855523 -0.003420
vn -0.395814 -0.828651 -0.395815
vn -0.517754 -0.855523 0.003420
vn -0.003420 -0.855523 0.517754
vn -0.395814 -0.828651 0.395814
vn -0.855524 -0.517753 -0.003420
vn -0.855524 -0.517753 0.003420
vn -0.828651 -0.395813 0.395814
vn -0.856072 -0.007317 0.516805
vn -0.856072 -0.007317 -0.516805
vn -0.828651 -0.395813 -0.395815
vn -0.856072 0.007317 -0.516805
vn -0.855524 0.517753 -0.003420
vn -0.828651 0.395813 -0.395814
vn -0.855524 0.517753 0.003420
vn -0.856072 0.007317 0.516805
vn -0.828651 0.395813 0.395815
vn -0.517754 0.855523 -0.003420
vn -0.517754 0.855523 0.003420
vn -0.395814 0.828651 0.395815
vn -0.003420 0.855523 0.517754
vn -0.003420 0.855523 -0.517754
vn -0.395814 0.828651 -0.395814
vn 0.003420 0.855523 -0.517754
vn 0.517754 0.855523 -0.003420
vn 0.395814 0.828651 -0.395815
vn 0.517754 0.855523 0.003420
vn 0.003420 0.855523 0.517754
vn 0.395814 0.828651 0.395814
vn 0.855524 0.517753 -0.003420
vn 0.855524 0.517753 0.003420
vn 0.828651 0.395813 0.395814
vn 0.856072 0.007317 0.516805
vn 0.856072 0.007317 -0.516805
vn 0.828651 0.395813 -0.395815
vn 0.856072 -0.007317 -0.516805
vn 0.855524 -0.517753 -0.003420
vn 0.828651 -0.395813 -0.395814
vn 0.855524 -0.517753 0.003420
vn 0.856072 -0.007317 0.516805
vn 0.828651 -0.395813 0.395815
vn 0.516805 0.007317 -0.856072
vn 0.516805 -0.007317 -0.856072
vn 0.395814 -0.395814 -0.828651
vn 0.003420 -0.517753 -0.855523
vn 0.003420 0.517753 -0.855523
vn 0.395814 0.395814 -0.828651
vn -0.003420 0.517753 -0.855523
vn -0.516805 0.007317 -0.856072
vn -0.395814 0.395814 -0.828651
vn -0.516805 -0.007317 -0.856072
vn -0.003420 -0.517753 -0.855523
vn -0.395814 -0.395814 -0.828651
vn -0.366140 -0.930512 -0.009386
vn -0.366140 -0.930512 0.009386
vn -0.249301 -0.935787 0.249301
vn -0.009386 -0.930512 0.366140
vn -0.009386 -0.930512 -0.366140
vn -0.249301 -0.935787 -0.249301
vn 0.009386 -0.930512 -0.366140
vn 0.366140 -0.930512 -0.009386
vn 0.249301 -0.935787 -0.249301
vn 0.366140 -0.930512 0.009386
vn 0.009386 -0.930512 0.366140
vn 0.249301 -0.935787 0.249301
vn 0.515296 -0.013443 0.856907
vn 0.515237 -0.038328 0.856190
vn 0.435320 -0.611037 0.661159
vn 0.007289 -0.591253 0.806453
vn 0.005959 -0.517136 0.855883
vn 0.395814 -0.395814 0.828651
vn -0.005959 -0.517136 0.855883
vn -0.515296 -0.013443 0.856907
vn -0.395814 -0.395814 0.828651
vn -0.515237 -0.038328 0.856190
vn -0.007289 -0.591253 0.806453
vn -0.435320 -0.611037 0.661159
vn 0.856907 -0.013443 -0.515296
vn 0.856190 -0.038328 -0.515238
vn 0.661158 -0.611036 -0.435321
vn 0.806453 -0.591253 -0.007289
vn 0.855883 -0.517136 -0.005959
vn 0.828651 -0.395814 -0.395814
vn 0.855883 -0.517136 0.005959
vn 0.856907 -0.013443 0.515296
vn 0.828651 -0.395814 0.395814
vn 0.856190 -0.038328 0.515238
vn 0.806453 -0.591253 0.007289
vn 0.661158 -0.611036 0.435321
vn -0.515296 -0.013443 -0.856907
vn -0.515237 -0.038328 -0.856190
vn -0.435320 -0.611037 -0.661159
vn -0.007289 -0.591253 -0.806453
vn -0.005959 -0.517136 -0.855883
vn -0.395814 -0.395814 -0.828651
vn 0.005959 -0.517136 -0.855883
vn 0.515296 -0.013443 -0.856907
vn 0.395814 -0.395814 -0.828651
vn 0.515237 -0.038328 -0.856190
vn 0.007289 -0.591253 -0.806453
vn 0.435320 -0.611037 -0.661159
vn -0.856907 -0.013443 0.515296
vn -0.856190 -0.038328 0.515238
vn -0.661159 -0.611036 0.435321
vn -0.806453 -0.591253 0.007289
vn -0.855883 -0.517136 0.005959
vn -0.828651 -0.395814 0.395814
vn -0.855883 -0.517136 -0.005959
vn -0.856907 -0.013443 -0.515296
vn -0.828651 -0.395814 -0.395814
vn -0.856190 -0.038328 -0.515238
vn -0.806453 -0.591253 -0.007289
vn -0.661158 -0.611036 -0.435321
vn 0.517136 -0.855883 -0.005959
vn 0.517136 -0.855883 0.005959
vn 0.395814 -0.828651 0.395814
vn 0.005959 -0.855883 0.517136
vn 0.005959 -0.855883 -0.517136
vn 0.395814 -0.828651 -0.395814
vn -0.005959 -0.855883 -0.517136
vn -0.517136 -0.855883 -0.005959
vn -0.395814 -0.828651 -0.395814
vn -0.517136 -0.855883 0.005959
vn -0.005959 -0.855883 0.517136
vn -0.395814 -0.828651 0.395814
s 1
g Brick_Flat
usemtl initialShadingGroup
f 4//1 3//2 2//3 1//4
f 24//5 23//6 22//7 21//8
f 14//9 13//10 16//11 15//12
f 19//13 18//14 17//15 20//16
f 9//17 12//18 11//19 10//20
f 26//21 25//22 8//23 7//24
f 25//22 28//25 5//26 8//23
f 28//25 27//27 6//28 5//26
f 27//27 26//21 7//24 6//28
f 48//29 47//30 46//31 45//32
f 32//33 31//34 30//35 29//36
f 36//37 35//38 34//39 33//40
f 40//41 39//42 38//43 37//44
f 44//45 43//46 42//47 41//48
f 51//49 49//50 2//3 3//2
f 49//50 50//51 60//52 2//3
f 53//53 52//54 51//49 3//2
f 54//55 53//53 3//2 4//1
f 56//56 55//57 54//55 4//1
f 57//58 56//56 4//1 1//4
f 59//59 58//60 57//58 1//4
f 60//52 59//59 1//4 2//3
f 63//61 61//62 6//28 7//24
f 61//62 62//63 72//64 6//28
f 65//65 64//66 63//61 7//24
f 66//67 65//65 7//24 8//23
f 68//68 67//69 66//67 8//23
f 69//70 68//68 8//23 5//26
f 71//71 70//72 69//70 5//26
f 72//64 71//71 5//26 6//28
f 75//73 73//74 10//20 11//19
f 73//74 74//75 84//76 10//20
f 77//77 76//78 75//73 11//19
f 78//79 77//77 11//19 12//18
f 80//80 79//81 78//79 12//18
f 81//82 80//80 12//18 9//17
f 83//83 82//84 81//82 9//17
f 84//76 83//83 9//17 10//20
f 87//85 85//86 14//9 15//12
f 85//86 86//87 96//88 14//9
f 89//89 88//90 87//85 15//12
f 90//91 89//89 15//12 16//11
f 92//92 91//93 90//91 16//11
f 93//94 92//92 16//11 13//10
f 95//95 94//96 93//94 13//10
f 96//88 95//95 13//10 14//9
f 99//97 97//98 18//14 19//13
f 97//98 98//99 108//100 18//14
f 101//101 100//102 99//97 19//13
f 102//103 101//101 19//13 20//16
f 104//104 103//105 102//103 20//16
f 105//106 104//104 20//16 17//15
f 107//107 106//108 105//106 17//15
f 108//100 107//107 17//15 18//14
f 111//109 109//110 22//7 23//6
f 109//110 110//111 120//112 22//7
f 113//113 112//114 111//109 23//6
f 114//115 113//113 23//6 24//5
f 116//116 115//117 114//115 24//5
f 117//118 116//116 24//5 21//8
f 119//119 118//120 117//118 21//8
f 120//112 119//119 21//8 22//7
f 123//121 121//122 26//21 27//27
f 121//122 122//123 132//124 26//21
f 125//125 124//126 123//121 27//27
f 126//127 125//125 27//27 28//25
f 128//128 127//129 126//127 28//25
f 129//130 128//128 28//25 25//22
f 131//131 130//132 129//130 25//22
f 132//124 131//131 25//22 26//21
f 135//133 133//134 30//35 31//34
f 133//134 134//135 144//136 30//35
f 137//137 136//138 135//133 31//34
f 138//139 137//137 31//34 32//33
f 140//140 139//141 138//139 32//33
f 141//142 140//140 32//33 29//36
f 143//143 142//144 141//142 29//36
f 144//136 143//143 29//36 30//35
f 147//145 145//146 34//39 35//38
f 145//146 146//147 156//148 34//39
f 149//149 148//150 147//145 35//38
f 150//151 149//149 35//38 36//37
f 152//152 151//153 150//151 36//37
f 153//154 152//152 36//37 33//40
f 155//155 154//156 153//154 33//40
f 156//148 155//155 33//40 34//39
f 159//157 157//158 38//43 39//42
f 157//158 158//159 168//160 38//43
f 161//161 160//162 159//157 39//42
f 162//163 161//161 39//42 40//41
f 164//164 163//165 162//163 40//41
f 165//166 164//164 40//41 37//44
f 167//167 166//168 165//166 37//44
f 168//160 167//167 37//44 38//43
f 171//169 169//170 42//47 43//46
f 169//170 170//171 180//172 42//47
f 173//173 172//174 171//169 43//46
f 174//175 173//173 43//46 44//45
f 176//176 175//177 174//175 44//45
f 177//178 176//176 44//45 41//48
f 179//179 178//180 177//178 41//48
f 180//172 179//179 41//48 42//47
f 183//181 181//182 46//31 47//30
f 181//182 182//183 192//184 46//31
f 185//185 184//186 183//181 47//30
f 186//187 185//185 47//30 48//29
f 188//188 187//189 186//187 48//29
f 189//190 188//188 48//29 45//32
f 191//191 190//192 189//190 45//32
f 192//184 191//191 45//32 46//31
f 83//83 84//76 49//50 51//49
f 84//76 74//75 50//51 49//50
f 51//49 52//54 82//84 83//83
f 95//95 96//88 53//53 54//55
f 96//88 86//87 52//54 53//53
f 54//55 55//57 94//96 95//95
f 107//107 108//100 56//56 57//58
f 108//100 98//99 55//57 56//56
f 57//58 58//60 106//108 107//107
f 71//71 72//64 59//59 60//52
f 72//64 62//63 58//60 59//59
f 60//52 50//51 70//72 71//71
f 104//104 105//106 61//62 63//61
f 105//106 106//108 62//63 61//62
f 63//61 64//66 103//105 104//104
f 119//119 120//112 65//65 66//67
f 120//112 110//111 64//66 65//65
f 66//67 67//69 118//120 119//119
f 73//74 75//73 68//68 69//70
f 75//73 76//78 67//69 68//68
f 69//70 70//72 74//75 73//74
f 116//116 117//118 77//77 78//79
f 117//118 118//120 76//78 77//77
f 78//79 79//81 115//117 116//116
f 85//86 87//85 80//80 81//82
f 87//85 88//90 79//81 80//80
f 81//82 82//84 86//87 85//86
f 113//113 114//115 89//89 90//91
f 114//115 115//117 88//90 89//89
f 90//91 91//93 112//114 113//113
f 97//98 99//97 92//92 93//94
f 99//97 100//102 91//93 92//92
f 93//94 94//96 98//99 97//98
f 109//110 111//109 101//101 102//103
f 111//109 112//114 100//102 101//101
f 102//103 103//105 110//111 109//110
f 179//179 180//172 121//122 123//121
f 180//172 170//171 122//123 121//122
f 123//121 124//126 178//180 179//179
f 167//167 168//160 125//125 126//127
f 168//160 158//159 124//126 125//125
f 126//127 127//129 166//168 167//167
f 155//155 156//148 128//128 129//130
f 156//148 146//147 127//129 128//128
f 129//130 130//132 154//156 155//155
f 143//143 144//136 131//131 132//124
f 144//136 134//135 130//132 131//131
f 132//124 122//123 142//144 143//143
f 152//152 153//154 133//134 135//133
f 153//154 154//156 134//135 133//134
f 135//133 136//138 151//153 152//152
f 191//191 192//184 137//137 138//139
f 192//184 182//183 136//138 137//137
f 138//139 139//141 190//192 191//191
f 169//170 171//169 140//140 141//142
f 171//169 172//174 139//141 140//140
f 141//142 142//144 170//171 169//170
f 164//164 165//166 145//146 147//145
f 165//166 166//168 146//147 145//146
f 147//145 148//150 163//165 164//164
f 181//182 183//181 149//149 150//151
f 183//181 184//186 148//150 149//149
f 150//151 151//153 182//183 181//182
f 176//176 177//178 157//158 159//157
f 177//178 178//180 158//159 157//158
f 159//157 160//162 175//177 176//176
f 185//185 186//187 161//161 162//163
f 186//187 187//189 160//162 161//161
f 162//163 163//165 184//186 185//185
f 188//188 189//190 173//173 174//175
f 189//190 190//192 172//174 173//173
f 174//175 175//177 187//189 188//188
f 62//63 106//108 58//60
f 70//72 50//51 74//75
f 86//87 82//84 52//54
f 98//99 94//96 55//57
f 76//78 118//120 67//69
f 110//111 103//105 64//66
f 100//102 112//114 91//93
f 88//90 115//117 79//81
f 134//135 154//156 130//132
f 142//144 122//123 170//171
f 146//147 166//168 127//129
f 158//159 178//180 124//126
f 172//174 190//192 139//141
f 182//183 151//153 136//138
f 184//186 163//165 148//150
f 187//189 175//177 160//162
